<svg width="365" height="113" viewBox="0 0 365 113" fill="none" xmlns="http://www.w3.org/2000/svg">
<path d="M364.5 56.5C364.5 64.0658 359.546 71.3673 350.363 78.0889C341.19 84.8028 327.885 90.87 311.399 95.9739C278.433 106.18 232.86 112.5 182.5 112.5C132.14 112.5 86.567 106.18 53.6009 95.9739C37.1148 90.87 23.8097 84.8028 14.6371 78.0889C5.45396 71.3673 0.5 64.0658 0.5 56.5C0.5 48.9342 5.45396 41.6327 14.6371 34.9111C23.8097 28.1972 37.1148 22.13 53.6009 17.0261C86.567 6.82015 132.14 0.5 182.5 0.5C232.86 0.5 278.433 6.82015 311.399 17.0261C327.885 22.13 341.19 28.1972 350.363 34.9111C359.546 41.6327 364.5 48.9342 364.5 56.5Z" stroke="black"/>
</svg>
