<svg width="513" height="513" viewBox="0 0 513 513" fill="none" xmlns="http://www.w3.org/2000/svg">
<rect width="171" height="171" fill="white"/>
<rect x="0.5" y="0.5" width="170" height="170" stroke="#5714AC" stroke-opacity="0.6"/>
<path d="M171 0H342V171H171V0Z" fill="white"/>
<path d="M171 -1H343L341 1H171V-1ZM343 172H171V170H341L343 172ZM171 171V0V171ZM343 -1V172L341 170V1L343 -1Z" fill="#5714AC" fill-opacity="0.6"/>
<path d="M342 0H513V171H342V0Z" fill="white"/>
<path d="M342 -1H514L512 1H342V-1ZM514 172H342V170H512L514 172ZM342 171V0V171ZM514 -1V172L512 170V1L514 -1Z" fill="#5714AC" fill-opacity="0.6"/>
<rect y="342" width="171" height="171" fill="white"/>
<rect x="0.5" y="342.5" width="170" height="170" stroke="#5714AC" stroke-opacity="0.6"/>
<path d="M171 342H342V513H171V342Z" fill="white"/>
<path d="M171 341H343L341 343H171V341ZM343 514H171V512H341L343 514ZM171 513V342V513ZM343 341V514L341 512V343L343 341Z" fill="#5714AC" fill-opacity="0.6"/>
<path d="M342 342H513V513H342V342Z" fill="white"/>
<path d="M342 341H514L512 343H342V341ZM514 514H342V512H512L514 514ZM342 513V342V513ZM514 341V514L512 512V343L514 341Z" fill="#5714AC" fill-opacity="0.6"/>
<path d="M0 171H171V342H0V171Z" fill="white"/>
<path d="M0 171H171H0ZM171 342H0H171ZM-1 342V171H1V342H-1ZM172 171V342H170V171H172Z" fill="#5714AC" fill-opacity="0.6"/>
<path d="M171 171H342V342H171V171Z" fill="white"/>
<path d="M171 171H342H171ZM342 342H171H342ZM171 342V171V342ZM343 171V342H341V171H343Z" fill="#5714AC" fill-opacity="0.6"/>
<path d="M342 171H513V342H342V171Z" fill="white"/>
<path d="M342 171H513H342ZM513 342H342H513ZM342 342V171V342ZM514 171V342H512V171H514Z" fill="#5714AC" fill-opacity="0.6"/>
<path fill-rule="evenodd" clip-rule="evenodd" d="M60.6447 49.6447C70.0215 40.2678 82.7392 35 96 35L96 84.5L96 85L96 135C82.7392 135 70.0215 129.732 60.6447 120.355C51.2678 110.979 46 98.2608 46 85C46 71.7392 51.2678 59.0215 60.6447 49.6447ZM96 84.5C96 92.0587 99.0027 99.3078 104.347 104.653C109.692 109.997 116.941 113 124.5 113V84.5V56C116.941 56 109.692 59.0027 104.347 64.3475C99.0027 69.6922 96 76.9413 96 84.5Z" fill="#222222"/>
<path fill-rule="evenodd" clip-rule="evenodd" d="M231.645 220.645C241.021 211.268 253.739 206 267 206L267 255.5L267 256L267 306C253.739 306 241.021 300.732 231.645 291.355C222.268 281.979 217 269.261 217 256C217 242.739 222.268 230.021 231.645 220.645ZM267 255.5C267 263.059 270.003 270.308 275.347 275.653C280.692 280.997 287.941 284 295.5 284V255.5V227C287.941 227 280.692 230.003 275.347 235.347C270.003 240.692 267 247.941 267 255.5Z" fill="#222222"/>
<path fill-rule="evenodd" clip-rule="evenodd" d="M402.645 392.645C412.021 383.268 424.739 378 438 378L438 427.5L438 428L438 478C424.739 478 412.021 472.732 402.645 463.355C393.268 453.979 388 441.261 388 428C388 414.739 393.268 402.021 402.645 392.645ZM438 427.5C438 435.059 441.003 442.308 446.347 447.653C451.692 452.997 458.941 456 466.5 456V427.5V399C458.941 399 451.692 402.003 446.347 407.347C441.003 412.692 438 419.941 438 427.5Z" fill="#222222"/>
<path fill-rule="evenodd" clip-rule="evenodd" d="M107.54 218.737C120.56 217.023 133.79 217.89 146.474 221.289L133.534 269.586C127.191 267.886 120.576 267.453 114.066 268.31C107.556 269.167 101.279 271.298 95.5926 274.581C89.9062 277.864 84.9221 282.235 80.9249 287.444C76.9277 292.653 73.9957 298.599 72.2963 304.941L24 292C27.3989 279.315 33.2629 267.424 41.2572 257.006C49.2516 246.587 59.2198 237.845 70.5926 231.279C81.9654 224.713 94.5201 220.452 107.54 218.737Z" fill="#D9D9D9"/>
<path fill-rule="evenodd" clip-rule="evenodd" d="M470.388 267.732C475.413 279.864 478 292.868 478 306H428C428 299.434 426.707 292.932 424.194 286.866C421.681 280.8 417.998 275.288 413.355 270.645C408.712 266.002 403.2 262.319 397.134 259.806C391.068 257.293 384.566 256 378 256L378 206C391.132 206 404.136 208.587 416.268 213.612C428.401 218.638 439.425 226.003 448.711 235.289C457.997 244.575 465.362 255.599 470.388 267.732Z" fill="#D9D9D9"/>
<path fill-rule="evenodd" clip-rule="evenodd" d="M299.388 96.7317C304.413 108.864 307 121.868 307 135H257C257 128.434 255.707 121.932 253.194 115.866C250.681 109.8 246.998 104.288 242.355 99.6447C237.712 95.0017 232.2 91.3188 226.134 88.806C220.068 86.2933 213.566 85 207 85L207 35C220.132 35 233.136 37.5866 245.268 42.612C257.401 47.6375 268.425 55.0035 277.711 64.2893C286.997 73.5752 294.362 84.5991 299.388 96.7317Z" fill="#D9D9D9"/>
<path fill-rule="evenodd" clip-rule="evenodd" d="M211.783 427.284C203.788 416.865 197.924 404.974 194.526 392.289L242.822 379.348C244.521 385.691 247.453 391.636 251.45 396.845C255.448 402.055 260.432 406.426 266.118 409.709C271.804 412.992 278.082 415.123 284.592 415.98C291.102 416.837 297.717 416.403 304.059 414.704L317 463C304.315 466.399 291.085 467.266 278.065 465.552C265.046 463.838 252.491 459.576 241.118 453.01C229.745 446.444 219.777 437.702 211.783 427.284Z" fill="#D9D9D9"/>
<path fill-rule="evenodd" clip-rule="evenodd" d="M116.655 391.855C129.675 393.57 142.23 397.831 153.603 404.397L128.603 447.699C122.916 444.416 116.639 442.285 110.129 441.428C103.619 440.571 97.004 441.004 90.6616 442.704C84.3192 444.403 78.3737 447.335 73.1645 451.332C67.9552 455.33 63.5843 460.314 60.3013 466L17 441C23.5661 429.627 32.3079 419.659 42.7264 411.665C53.1449 403.67 65.0359 397.806 77.7206 394.407C90.4054 391.009 103.635 390.141 116.655 391.855Z" fill="#D9D9D9"/>
<path fill-rule="evenodd" clip-rule="evenodd" d="M416.268 127.388C404.136 132.413 391.132 135 378 135L378 85C384.566 85 391.068 83.7067 397.134 81.194C403.2 78.6812 408.712 74.9983 413.355 70.3553C417.998 65.7124 421.681 60.2005 424.194 54.1342C426.707 48.0679 428 41.5661 428 35L478 35C478 48.1322 475.413 61.1358 470.388 73.2683C465.362 85.4009 457.997 96.4248 448.711 105.711C439.425 114.997 428.401 122.362 416.268 127.388Z" fill="#D9D9D9"/>
</svg>
