<svg width="172" height="36" viewBox="0 0 172 36" fill="none" xmlns="http://www.w3.org/2000/svg">
<path d="M20.8152 4.75543C20.7068 4.70124 20.5442 5.01285 20.3274 5.69026C20.1378 6.34058 19.8803 7.19411 19.5552 8.25088C19.23 9.28054 18.8778 10.4592 18.4984 11.787C18.1462 13.0876 17.7533 14.3882 17.3197 15.6889C16.8862 16.9895 16.4526 18.2088 16.0191 19.3469C15.5856 20.4578 15.152 21.3385 14.7185 21.9888C14.2849 22.6391 13.8785 23.0049 13.4991 23.0862C13.1198 23.1404 12.7811 22.7475 12.483 21.9075C12.2662 21.5281 11.9546 20.932 11.5482 20.1191C11.1688 19.2791 10.7217 18.3443 10.2069 17.3146C9.69207 16.285 9.15014 15.2011 8.58111 14.0631C8.01209 12.925 7.47016 11.8547 6.95533 10.8521C6.46759 9.82247 6.00695 8.90119 5.57341 8.0883C5.16696 7.2754 4.8689 6.67928 4.67922 6.29993C4.35406 5.70381 4.056 5.22962 3.78504 4.87737C3.54117 4.49801 3.14827 4.30834 2.60634 4.30834C2.60634 6.20509 2.71473 8.29152 2.9315 10.5676C3.14827 12.8437 3.37859 15.1469 3.62246 17.4772C3.89342 19.8075 4.13729 22.1107 4.35406 24.3868C4.57084 26.6358 4.67922 28.7223 4.67922 30.6461C4.78761 30.89 4.74696 31.1203 4.55729 31.3371C4.39471 31.5538 4.15084 31.7164 3.82568 31.8248C3.52762 31.9332 3.18892 31.9332 2.80957 31.8248C2.45731 31.7435 2.15925 31.5267 1.91538 31.1745C1.67151 28.7629 1.53603 26.3107 1.50893 23.8178C1.50893 21.2978 1.49539 18.7779 1.46829 16.2579C1.44119 13.7379 1.33281 11.2179 1.14313 8.69797C0.953457 6.1509 0.574107 3.61738 0.00508059 1.09741C-0.0220159 0.609671 0.0592735 0.311609 0.248949 0.203224C0.438624 0.0677412 0.682492 0 0.980554 0C1.63087 0 2.21344 0.162579 2.72828 0.487737C3.27021 0.785798 3.75794 1.1787 4.19149 1.66643C4.62503 2.12707 5.00438 2.64191 5.32954 3.21093C5.68179 3.77996 5.9934 4.29479 6.26437 4.75543C6.48114 5.10769 6.7792 5.66316 7.15855 6.42186L8.45918 9.06377C8.94692 10.0392 9.4482 11.0689 9.96304 12.1528C10.505 13.2095 11.0198 14.2256 11.5075 15.2011C11.9953 16.1495 12.4424 17.003 12.8488 17.7617C13.2553 18.4933 13.5669 19.0217 13.7836 19.3469C13.892 19.3469 13.9869 19.3062 14.0682 19.2249C14.1494 19.1437 14.2578 18.9133 14.3933 18.534C14.5559 18.1546 14.7591 17.5721 15.003 16.7863C15.2739 16.0005 15.6397 14.9166 16.1004 13.5347C16.561 12.1528 17.1301 10.405 17.8075 8.29152C18.4849 6.178 19.3113 3.60383 20.2868 0.569026C20.341 0.433544 20.5171 0.311609 20.8152 0.203224C21.1132 0.0948377 21.3842 0.0406447 21.6281 0.0406447C21.8719 0.0406447 22.0345 0.121934 22.1158 0.284513C22.2242 0.447092 22.3055 0.718057 22.3597 1.09741C22.6035 3.40061 22.7932 5.81219 22.9287 8.33217C23.0913 10.825 23.2945 13.3586 23.5384 15.9327C23.7822 18.4798 24.0803 21.0133 24.4326 23.5333C24.8119 26.0533 25.3267 28.4513 25.9771 30.7274L23.1726 31.8248L20.8152 4.75543Z" fill="#222222"/>
<path d="M39.7963 30.7274C39.6608 30.0229 39.5388 29.1829 39.4305 28.2074C39.3492 27.2049 39.2543 26.2023 39.1459 25.1997C39.0376 24.1701 38.9021 23.2081 38.7395 22.3139C38.604 21.4198 38.3872 20.6882 38.0892 20.1191C36.7073 22.9372 35.4879 25.1591 34.4312 26.7849C33.3744 28.3836 32.4396 29.5352 31.6267 30.2397C30.8409 30.9171 30.177 31.2422 29.6351 31.2151C29.0931 31.188 28.6461 30.9442 28.2938 30.4835C27.9415 30.0229 27.6841 29.4403 27.5216 28.7358C27.3861 28.0042 27.2912 27.3268 27.237 26.7036C27.237 26.1075 27.3725 25.2675 27.6435 24.1836C27.9145 23.0997 28.2803 21.921 28.7409 20.6475C29.2015 19.3469 29.7435 18.0327 30.3667 16.705C31.017 15.3772 31.708 14.1715 32.4396 13.0876C33.1712 12.0037 33.9299 11.1096 34.7157 10.405C35.5015 9.70054 36.2873 9.34828 37.0731 9.34828C38.2382 9.15861 39.0917 9.41603 39.6337 10.1205C40.2027 10.7979 40.3111 11.9495 39.9588 13.5753C39.9588 15.3637 40.0266 16.8947 40.1621 18.1682C40.3246 19.4417 40.4872 20.6611 40.6498 21.8262C40.8395 22.9914 41.002 24.2107 41.1375 25.4842C41.3001 26.7578 41.3814 28.2887 41.3814 30.0771C41.3814 30.4022 41.3408 30.6868 41.2595 30.9306C41.2053 31.1474 40.8801 31.2558 40.284 31.2558C40.2027 31.2558 40.0943 31.188 39.9588 31.0526C39.8504 30.9171 39.7963 30.8087 39.7963 30.7274ZM37.6014 12.5592C37.3034 12.1257 36.8969 12.085 36.3821 12.4373C35.8673 12.7895 35.3253 13.3721 34.7563 14.185C34.1873 14.9979 33.6047 15.9734 33.0086 17.1114C32.4125 18.2495 31.857 19.4011 31.3422 20.5662C30.8273 21.7314 30.3802 22.8423 30.0009 23.8991C29.6215 24.9288 29.3641 25.7823 29.2286 26.4597C29.2286 27.4352 29.3777 27.9907 29.6757 28.1261C29.9738 28.2345 30.3396 28.0719 30.7731 27.6384C31.2067 27.2049 31.6944 26.5816 32.2363 25.7687C32.8054 24.9559 33.3473 24.0888 33.8621 23.1675C34.4041 22.2462 34.9053 21.352 35.366 20.4849C35.8537 19.6178 36.2331 18.9133 36.504 18.3714C36.7479 17.8024 36.9376 17.274 37.0731 16.7863C37.2085 16.2985 37.3169 15.8379 37.3982 15.4043C37.5066 14.9437 37.5608 14.4831 37.5608 14.0224C37.5879 13.5618 37.6014 13.074 37.6014 12.5592Z" fill="#222222"/>
<path d="M44.5923 14.4289C44.3214 14.5644 44.0639 14.7134 43.8201 14.876C43.6033 15.0114 43.3865 15.1469 43.1698 15.2824C42.953 15.3908 42.7362 15.4721 42.5194 15.5263C42.3027 15.5805 42.0724 15.5805 41.8285 15.5263C41.6659 15.5263 41.5304 15.4314 41.422 15.2418C41.3137 15.025 41.2324 14.7947 41.1782 14.5508C41.0969 14.2798 41.0427 14.0224 41.0156 13.7786C40.9885 13.5076 40.9885 13.3044 41.0156 13.1689L44.9175 10.9334L45.1614 0.528381C45.2155 0.176127 45.4323 0.0406447 45.8117 0.121934C46.191 0.176127 46.5839 0.257417 46.9904 0.365802C47.0446 0.365802 47.1258 0.392899 47.2342 0.447092C47.3697 0.474188 47.4646 0.501285 47.5187 0.528381C47.4646 1.25999 47.3968 2.05933 47.3155 2.92642C47.2613 3.76641 47.2071 4.61995 47.1529 5.48704C47.0988 6.32703 47.0581 7.15347 47.031 7.96636C47.031 8.77926 47.0717 9.51086 47.1529 10.1612L53.2497 8.4541C53.358 8.427 53.4393 8.50829 53.4935 8.69797C53.5748 8.86055 53.6426 9.06377 53.6967 9.30764C53.778 9.55151 53.8322 9.79538 53.8593 10.0392C53.8864 10.2831 53.9 10.405 53.9 10.405L46.9904 13.3315C46.9904 13.5753 47.0039 14.1579 47.031 15.0792C47.0852 16.0005 47.1394 17.0979 47.1936 18.3714C47.2478 19.6178 47.302 20.9727 47.3562 22.4359C47.4104 23.872 47.4646 25.2133 47.5187 26.4597C47.5729 27.7061 47.6136 28.8036 47.6407 29.7519C47.6678 30.6732 47.6813 31.2558 47.6813 31.4997C47.6271 32.3125 47.3833 32.719 46.9497 32.719C46.5433 32.719 46.0962 32.5158 45.6084 32.1093L44.5923 14.4289Z" fill="#222222"/>
<path d="M54.6722 22.4359C54.7535 21.4604 54.8348 20.4036 54.9161 19.2656C54.9974 18.1004 55.1193 16.9488 55.2819 15.8108C55.4716 14.6727 55.7019 13.5889 55.9728 12.5592C56.2709 11.5296 56.6503 10.6218 57.1109 9.83602C57.5986 9.02313 58.1948 8.38636 58.8993 7.92572C59.6038 7.43798 60.4573 7.20766 61.4599 7.23476C62.1373 7.23476 62.6521 7.51927 63.0044 8.0883C63.3837 8.65732 63.6412 9.34828 63.7766 10.1612C63.9392 10.9741 64.0205 11.8141 64.0205 12.6812C64.0476 13.5211 64.0611 14.2121 64.0611 14.754C63.5192 14.754 63.0721 14.5237 62.7199 14.0631C62.3676 13.5753 62.0966 13.0199 61.907 12.3966C61.7173 11.7734 61.5818 11.1637 61.5005 10.5676L61.3786 9.38893C61.3515 9.38893 61.2973 9.38893 61.216 9.38893C61.1618 9.36183 61.1212 9.34828 61.0941 9.34828C60.6334 9.34828 60.1999 9.6057 59.7934 10.1205C59.4141 10.6354 59.0483 11.2992 58.696 12.1121C58.3709 12.8979 58.0864 13.7921 57.8425 14.7947C57.5986 15.7701 57.3954 16.7321 57.2328 17.6805C57.0703 18.6288 56.9348 19.5095 56.8264 20.3224C56.7451 21.1082 56.7045 21.7178 56.7045 22.1514C56.6503 22.8559 56.6503 23.6281 56.7045 24.4681C56.7586 25.3081 56.9212 26.0939 57.1922 26.8255C57.4632 27.5571 57.8425 28.1939 58.3302 28.7358C58.818 29.2506 59.4683 29.6029 60.2812 29.7926C61.2838 29.7926 62.0967 29.6571 62.7199 29.3861C63.3431 29.1152 63.8444 28.7494 64.2237 28.2887C64.6302 27.8281 64.9418 27.3132 65.1586 26.7442C65.3753 26.1752 65.5786 25.5926 65.7682 24.9965C65.985 24.3733 66.2018 23.7636 66.4185 23.1675C66.6353 22.5714 66.9469 22.0159 67.3534 21.5011C67.6785 21.4198 67.9088 21.4333 68.0443 21.5417C68.2069 21.623 68.3153 21.7449 68.3695 21.9075C68.4237 22.0701 68.4508 22.2598 68.4508 22.4765V22.9236C68.4508 24.0617 68.2611 25.1591 67.8818 26.2158C67.5024 27.2726 66.9469 28.221 66.2153 29.061C65.4837 29.8739 64.6031 30.5377 63.5734 31.0526C62.5708 31.5403 61.4192 31.7842 60.1186 31.7842C59.0348 31.7842 58.127 31.4455 57.3954 30.768C56.6909 30.0635 56.1354 29.2235 55.729 28.2481C55.3496 27.2726 55.0787 26.2565 54.9161 25.1997C54.7535 24.1159 54.6722 23.1946 54.6722 22.4359Z" fill="#222222"/>
<path d="M85.5216 14.0224C84.519 13.6431 83.5571 13.7921 82.6358 14.4695C81.7145 15.1469 80.8339 16.1089 79.9939 17.3553C79.1539 18.5746 78.3545 19.9701 77.5958 21.5417C76.8371 23.1133 76.1326 24.6036 75.4823 26.0126C74.832 27.4216 74.2359 28.6274 73.6939 29.63C73.1791 30.6326 72.7049 31.188 72.2714 31.2964C71.9462 31.2964 71.6888 31.2422 71.4991 31.1339C71.3365 30.9984 71.2553 30.6868 71.2553 30.199V1.62579C71.2553 1.38192 71.3501 1.23289 71.5398 1.1787C71.7565 1.1245 71.9869 1.11096 72.2307 1.13805C72.4746 1.16515 72.7049 1.23289 72.9217 1.34128C73.1385 1.42256 73.2739 1.5174 73.3281 1.62579L73.8565 24.5088C74.1546 24.021 74.4256 23.3436 74.6694 22.4765C74.9404 21.5823 75.252 20.634 75.6042 19.6314C75.9565 18.6017 76.3629 17.5856 76.8236 16.583C77.3113 15.5534 77.9074 14.6321 78.612 13.8192C79.3165 13.0063 80.17 12.3831 81.1726 11.9495C82.2022 11.4889 83.408 11.3263 84.7899 11.4618C85.7112 11.4618 86.4564 11.7599 87.0254 12.356C87.5944 12.925 87.8925 13.6837 87.9196 14.6321L88.326 30.8493C88.326 30.9577 88.2989 31.1203 88.2448 31.3371C88.2177 31.5267 88.1093 31.6893 87.9196 31.8248C87.757 31.9874 87.5131 32.0822 87.188 32.1093C86.8899 32.1635 86.497 32.0958 86.0093 31.9061L85.5216 14.0224Z" fill="#222222"/>
<path d="M103.891 30.7208V20.6071L95.733 3.50121H100.894L103.849 10.4518C104.237 11.4784 104.626 12.4773 105.014 13.4484C105.403 14.3918 105.819 15.3907 106.263 16.4451H106.429C106.873 15.3907 107.303 14.3918 107.72 13.4484C108.136 12.4773 108.538 11.4784 108.927 10.4518L111.882 3.50121H116.918L108.719 20.6071V30.7208H103.891Z" fill="#6418C7"/>
<path d="M130.126 31.2203C127.767 31.2203 125.686 30.6514 123.883 29.5138C122.079 28.3485 120.664 26.7114 119.638 24.6026C118.639 22.4661 118.139 19.9273 118.139 16.9861C118.139 14.045 118.639 11.5339 119.638 9.45289C120.664 7.37189 122.079 5.77644 123.883 4.66657C125.686 3.5567 127.767 3.00177 130.126 3.00177C132.512 3.00177 134.607 3.5567 136.411 4.66657C138.214 5.77644 139.615 7.37189 140.614 9.45289C141.641 11.5339 142.154 14.045 142.154 16.9861C142.154 19.9273 141.641 22.4661 140.614 24.6026C139.615 26.7114 138.214 28.3485 136.411 29.5138C134.607 30.6514 132.512 31.2203 130.126 31.2203ZM130.126 27.0166C132.262 27.0166 133.969 26.1148 135.245 24.3113C136.522 22.48 137.16 20.0383 137.16 16.9861C137.16 13.934 136.522 11.5478 135.245 9.82748C133.969 8.07943 132.262 7.20541 130.126 7.20541C127.989 7.20541 126.283 8.07943 125.007 9.82748C123.73 11.5478 123.092 13.934 123.092 16.9861C123.092 20.0383 123.73 22.48 125.007 24.3113C126.283 26.1148 127.989 27.0166 130.126 27.0166Z" fill="#6418C7"/>
<path d="M157.796 31.2203C155.715 31.2203 153.898 30.8041 152.344 29.9716C150.79 29.1392 149.583 27.8074 148.723 25.9761C147.891 24.1448 147.474 21.7447 147.474 18.7758V3.50121H152.302V19.1504C152.302 21.1204 152.524 22.6881 152.968 23.8535C153.44 24.9911 154.092 25.8096 154.924 26.3091C155.757 26.7808 156.714 27.0166 157.796 27.0166C158.906 27.0166 159.877 26.7808 160.71 26.3091C161.57 25.8096 162.236 24.9911 162.707 23.8535C163.207 22.6881 163.457 21.1204 163.457 19.1504V3.50121H168.076V18.7758C168.076 21.7447 167.66 24.1448 166.828 25.9761C165.995 27.8074 164.802 29.1392 163.248 29.9716C161.722 30.8041 159.905 31.2203 157.796 31.2203Z" fill="#6418C7"/>
<path d="M144.145 33.8423H171.406V35.9233H144.145V33.8423Z" fill="#6418C7"/>
</svg>
