<svg width="477" height="318" viewBox="0 0 477 318" fill="none" xmlns="http://www.w3.org/2000/svg">
<rect width="477" height="318" fill="#F1F1F1"/>
<rect x="99" y="105" width="279" height="109" rx="3" fill="white"/>
<g filter="url(#filter0_b_239_2)">
<path d="M173.815 146.755C173.707 146.701 173.544 147.013 173.327 147.69C173.138 148.341 172.88 149.194 172.555 150.251C172.23 151.281 171.878 152.459 171.498 153.787C171.146 155.088 170.753 156.388 170.32 157.689C169.886 158.989 169.453 160.209 169.019 161.347C168.586 162.458 168.152 163.338 167.718 163.989C167.285 164.639 166.878 165.005 166.499 165.086C166.12 165.14 165.781 164.747 165.483 163.907C165.266 163.528 164.955 162.932 164.548 162.119C164.169 161.279 163.722 160.344 163.207 159.315C162.692 158.285 162.15 157.201 161.581 156.063C161.012 154.925 160.47 153.855 159.955 152.852C159.468 151.822 159.007 150.901 158.573 150.088C158.167 149.275 157.869 148.679 157.679 148.3C157.354 147.704 157.056 147.23 156.785 146.877C156.541 146.498 156.148 146.308 155.606 146.308C155.606 148.205 155.715 150.292 155.931 152.568C156.148 154.844 156.379 157.147 156.622 159.477C156.893 161.808 157.137 164.111 157.354 166.387C157.571 168.636 157.679 170.722 157.679 172.646C157.788 172.89 157.747 173.12 157.557 173.337C157.395 173.554 157.151 173.716 156.826 173.825C156.528 173.933 156.189 173.933 155.81 173.825C155.457 173.744 155.159 173.527 154.915 173.174C154.672 170.763 154.536 168.311 154.509 165.818C154.509 163.298 154.495 160.778 154.468 158.258C154.441 155.738 154.333 153.218 154.143 150.698C153.953 148.151 153.574 145.617 153.005 143.097C152.978 142.61 153.059 142.312 153.249 142.203C153.439 142.068 153.682 142 153.981 142C154.631 142 155.213 142.163 155.728 142.488C156.27 142.786 156.758 143.179 157.191 143.666C157.625 144.127 158.004 144.642 158.33 145.211C158.682 145.78 158.993 146.295 159.264 146.755C159.481 147.108 159.779 147.663 160.159 148.422L161.459 151.064C161.947 152.039 162.448 153.069 162.963 154.153C163.505 155.21 164.02 156.226 164.508 157.201C164.995 158.149 165.442 159.003 165.849 159.762C166.255 160.493 166.567 161.022 166.784 161.347C166.892 161.347 166.987 161.306 167.068 161.225C167.149 161.144 167.258 160.913 167.393 160.534C167.556 160.155 167.759 159.572 168.003 158.786C168.274 158 168.64 156.917 169.1 155.535C169.561 154.153 170.13 152.405 170.807 150.292C171.485 148.178 172.311 145.604 173.287 142.569C173.341 142.434 173.517 142.312 173.815 142.203C174.113 142.095 174.384 142.041 174.628 142.041C174.872 142.041 175.035 142.122 175.116 142.285C175.224 142.447 175.305 142.718 175.36 143.097C175.604 145.401 175.793 147.812 175.929 150.332C176.091 152.825 176.295 155.359 176.538 157.933C176.782 160.48 177.08 163.013 177.433 165.533C177.812 168.053 178.327 170.451 178.977 172.727L176.173 173.825L173.815 146.755Z" fill="#222222"/>
<path d="M192.796 172.727C192.661 172.023 192.539 171.183 192.43 170.207C192.349 169.205 192.254 168.202 192.146 167.2C192.038 166.17 191.902 165.208 191.739 164.314C191.604 163.42 191.387 162.688 191.089 162.119C189.707 164.937 188.488 167.159 187.431 168.785C186.374 170.384 185.44 171.535 184.627 172.24C183.841 172.917 183.177 173.242 182.635 173.215C182.093 173.188 181.646 172.944 181.294 172.484C180.942 172.023 180.684 171.44 180.522 170.736C180.386 170.004 180.291 169.327 180.237 168.704C180.237 168.107 180.373 167.267 180.643 166.184C180.914 165.1 181.28 163.921 181.741 162.648C182.202 161.347 182.743 160.033 183.367 158.705C184.017 157.377 184.708 156.171 185.44 155.088C186.171 154.004 186.93 153.11 187.716 152.405C188.501 151.701 189.287 151.348 190.073 151.348C191.238 151.159 192.092 151.416 192.634 152.121C193.203 152.798 193.311 153.95 192.959 155.575C192.959 157.364 193.027 158.895 193.162 160.168C193.325 161.442 193.487 162.661 193.65 163.826C193.839 164.991 194.002 166.211 194.138 167.484C194.3 168.758 194.381 170.289 194.381 172.077C194.381 172.402 194.341 172.687 194.259 172.931C194.205 173.147 193.88 173.256 193.284 173.256C193.203 173.256 193.094 173.188 192.959 173.053C192.85 172.917 192.796 172.809 192.796 172.727ZM190.601 154.559C190.303 154.126 189.897 154.085 189.382 154.437C188.867 154.79 188.325 155.372 187.756 156.185C187.187 156.998 186.605 157.973 186.009 159.111C185.412 160.249 184.857 161.401 184.342 162.566C183.827 163.731 183.38 164.842 183.001 165.899C182.622 166.929 182.364 167.782 182.229 168.46C182.229 169.435 182.378 169.991 182.676 170.126C182.974 170.235 183.34 170.072 183.773 169.638C184.207 169.205 184.694 168.582 185.236 167.769C185.805 166.956 186.347 166.089 186.862 165.167C187.404 164.246 187.905 163.352 188.366 162.485C188.854 161.618 189.233 160.913 189.504 160.371C189.748 159.802 189.938 159.274 190.073 158.786C190.209 158.299 190.317 157.838 190.398 157.404C190.507 156.944 190.561 156.483 190.561 156.022C190.588 155.562 190.601 155.074 190.601 154.559Z" fill="#222222"/>
<path d="M197.592 156.429C197.321 156.564 197.064 156.713 196.82 156.876C196.603 157.011 196.387 157.147 196.17 157.282C195.953 157.391 195.736 157.472 195.519 157.526C195.303 157.58 195.072 157.58 194.828 157.526C194.666 157.526 194.53 157.431 194.422 157.242C194.314 157.025 194.232 156.795 194.178 156.551C194.097 156.28 194.043 156.022 194.016 155.779C193.988 155.508 193.988 155.304 194.016 155.169L197.917 152.933L198.161 142.528C198.216 142.176 198.432 142.041 198.812 142.122C199.191 142.176 199.584 142.257 199.99 142.366C200.045 142.366 200.126 142.393 200.234 142.447C200.37 142.474 200.465 142.501 200.519 142.528C200.465 143.26 200.397 144.059 200.316 144.926C200.261 145.766 200.207 146.62 200.153 147.487C200.099 148.327 200.058 149.153 200.031 149.966C200.031 150.779 200.072 151.511 200.153 152.161L206.25 150.454C206.358 150.427 206.439 150.508 206.494 150.698C206.575 150.861 206.643 151.064 206.697 151.308C206.778 151.552 206.832 151.795 206.859 152.039C206.886 152.283 206.9 152.405 206.9 152.405L199.99 155.331C199.99 155.575 200.004 156.158 200.031 157.079C200.085 158 200.139 159.098 200.194 160.371C200.248 161.618 200.302 162.973 200.356 164.436C200.41 165.872 200.465 167.213 200.519 168.46C200.573 169.706 200.614 170.804 200.641 171.752C200.668 172.673 200.681 173.256 200.681 173.5C200.627 174.313 200.383 174.719 199.95 174.719C199.543 174.719 199.096 174.516 198.608 174.109L197.592 156.429Z" fill="#222222"/>
<path d="M207.672 164.436C207.754 163.46 207.835 162.404 207.916 161.266C207.997 160.1 208.119 158.949 208.282 157.811C208.472 156.673 208.702 155.589 208.973 154.559C209.271 153.53 209.65 152.622 210.111 151.836C210.599 151.023 211.195 150.386 211.899 149.926C212.604 149.438 213.457 149.208 214.46 149.235C215.137 149.235 215.652 149.519 216.004 150.088C216.384 150.657 216.641 151.348 216.777 152.161C216.939 152.974 217.021 153.814 217.021 154.681C217.048 155.521 217.061 156.212 217.061 156.754C216.519 156.754 216.072 156.524 215.72 156.063C215.368 155.575 215.097 155.02 214.907 154.397C214.717 153.773 214.582 153.164 214.501 152.568L214.379 151.389C214.351 151.389 214.297 151.389 214.216 151.389C214.162 151.362 214.121 151.348 214.094 151.348C213.633 151.348 213.2 151.606 212.793 152.121C212.414 152.635 212.048 153.299 211.696 154.112C211.371 154.898 211.086 155.792 210.843 156.795C210.599 157.77 210.395 158.732 210.233 159.68C210.07 160.629 209.935 161.509 209.826 162.322C209.745 163.108 209.704 163.718 209.704 164.151C209.65 164.856 209.65 165.628 209.704 166.468C209.759 167.308 209.921 168.094 210.192 168.826C210.463 169.557 210.843 170.194 211.33 170.736C211.818 171.251 212.468 171.603 213.281 171.793C214.284 171.793 215.097 171.657 215.72 171.386C216.343 171.115 216.844 170.749 217.224 170.289C217.63 169.828 217.942 169.313 218.159 168.744C218.375 168.175 218.579 167.593 218.768 166.996C218.985 166.373 219.202 165.764 219.419 165.167C219.635 164.571 219.947 164.016 220.353 163.501C220.679 163.42 220.909 163.433 221.044 163.542C221.207 163.623 221.315 163.745 221.369 163.907C221.424 164.07 221.451 164.26 221.451 164.477V164.924C221.451 166.062 221.261 167.159 220.882 168.216C220.502 169.273 219.947 170.221 219.215 171.061C218.484 171.874 217.603 172.538 216.573 173.053C215.571 173.54 214.419 173.784 213.119 173.784C212.035 173.784 211.127 173.445 210.395 172.768C209.691 172.064 209.135 171.224 208.729 170.248C208.35 169.273 208.079 168.256 207.916 167.2C207.754 166.116 207.672 165.195 207.672 164.436Z" fill="#222222"/>
<path d="M238.522 156.022C237.519 155.643 236.557 155.792 235.636 156.47C234.715 157.147 233.834 158.109 232.994 159.355C232.154 160.575 231.355 161.97 230.596 163.542C229.837 165.113 229.133 166.604 228.482 168.013C227.832 169.422 227.236 170.627 226.694 171.63C226.179 172.633 225.705 173.188 225.271 173.296C224.946 173.296 224.689 173.242 224.499 173.134C224.337 172.998 224.255 172.687 224.255 172.199V143.626C224.255 143.382 224.35 143.233 224.54 143.179C224.757 143.125 224.987 143.111 225.231 143.138C225.475 143.165 225.705 143.233 225.922 143.341C226.138 143.423 226.274 143.517 226.328 143.626L226.857 166.509C227.155 166.021 227.426 165.344 227.669 164.477C227.94 163.582 228.252 162.634 228.604 161.631C228.957 160.602 229.363 159.586 229.824 158.583C230.311 157.553 230.907 156.632 231.612 155.819C232.316 155.006 233.17 154.383 234.173 153.95C235.202 153.489 236.408 153.326 237.79 153.462C238.711 153.462 239.456 153.76 240.025 154.356C240.594 154.925 240.892 155.684 240.92 156.632L241.326 172.849C241.326 172.958 241.299 173.12 241.245 173.337C241.218 173.527 241.109 173.689 240.92 173.825C240.757 173.987 240.513 174.082 240.188 174.109C239.89 174.164 239.497 174.096 239.009 173.906L238.522 156.022Z" fill="#222222"/>
<path d="M256.891 172.721V162.607L248.733 145.501H253.894L256.849 152.452C257.237 153.478 257.626 154.477 258.014 155.448C258.403 156.392 258.819 157.391 259.263 158.445H259.429C259.873 157.391 260.303 156.392 260.72 155.448C261.136 154.477 261.538 153.478 261.927 152.452L264.882 145.501H269.918L261.719 162.607V172.721H256.891Z" fill="#6418C7"/>
<path d="M283.126 173.22C280.767 173.22 278.686 172.651 276.883 171.514C275.079 170.348 273.664 168.711 272.638 166.603C271.639 164.466 271.139 161.927 271.139 158.986C271.139 156.045 271.639 153.534 272.638 151.453C273.664 149.372 275.079 147.776 276.883 146.667C278.686 145.557 280.767 145.002 283.126 145.002C285.512 145.002 287.607 145.557 289.411 146.667C291.214 147.776 292.615 149.372 293.614 151.453C294.641 153.534 295.154 156.045 295.154 158.986C295.154 161.927 294.641 164.466 293.614 166.603C292.615 168.711 291.214 170.348 289.411 171.514C287.607 172.651 285.512 173.22 283.126 173.22ZM283.126 169.017C285.262 169.017 286.969 168.115 288.245 166.311C289.522 164.48 290.16 162.038 290.16 158.986C290.16 155.934 289.522 153.548 288.245 151.827C286.969 150.079 285.262 149.205 283.126 149.205C280.989 149.205 279.283 150.079 278.007 151.827C276.73 153.548 276.092 155.934 276.092 158.986C276.092 162.038 276.73 164.48 278.007 166.311C279.283 168.115 280.989 169.017 283.126 169.017Z" fill="#6418C7"/>
<path d="M310.796 173.22C308.715 173.22 306.898 172.804 305.344 171.972C303.79 171.139 302.583 169.807 301.723 167.976C300.891 166.145 300.474 163.745 300.474 160.776V145.501H305.302V161.15C305.302 163.12 305.524 164.688 305.968 165.853C306.44 166.991 307.092 167.81 307.924 168.309C308.757 168.781 309.714 169.017 310.796 169.017C311.906 169.017 312.877 168.781 313.71 168.309C314.57 167.81 315.236 166.991 315.707 165.853C316.207 164.688 316.457 163.12 316.457 161.15V145.501H321.076V160.776C321.076 163.745 320.66 166.145 319.828 167.976C318.995 169.807 317.802 171.139 316.248 171.972C314.722 172.804 312.905 173.22 310.796 173.22Z" fill="#6418C7"/>
<path d="M297.145 175.842H324.406V177.923H297.145V175.842Z" fill="#6418C7"/>
</g>
<defs>
<filter id="filter0_b_239_2" x="53" y="42" width="371.406" height="235.923" filterUnits="userSpaceOnUse" color-interpolation-filters="sRGB">
<feFlood flood-opacity="0" result="BackgroundImageFix"/>
<feGaussianBlur in="BackgroundImage" stdDeviation="50"/>
<feComposite in2="SourceAlpha" operator="in" result="effect1_backgroundBlur_239_2"/>
<feBlend mode="normal" in="SourceGraphic" in2="effect1_backgroundBlur_239_2" result="shape"/>
</filter>
</defs>
</svg>
