<svg width="104" height="104" viewBox="0 0 104 104" fill="none" xmlns="http://www.w3.org/2000/svg">
<path d="M47.125 29.25V65C47.125 70.1717 45.0705 75.1316 41.4136 78.7886C37.7566 82.4455 32.7967 84.5 27.625 84.5C26.763 84.5 25.9364 84.1576 25.3269 83.5481C24.7174 82.9386 24.375 82.112 24.375 81.25C24.375 80.388 24.7174 79.5614 25.3269 78.9519C25.9364 78.3424 26.763 78 27.625 78C31.0695 77.9893 34.3699 76.6162 36.8056 74.1806C39.2412 71.7449 40.6143 68.4445 40.625 65V61.75H16.25C14.5261 61.75 12.8728 61.0652 11.6538 59.8462C10.4348 58.6272 9.75 56.9739 9.75 55.25V29.25C9.75 27.5261 10.4348 25.8728 11.6538 24.6538C12.8728 23.4348 14.5261 22.75 16.25 22.75H40.625C42.3489 22.75 44.0022 23.4348 45.2212 24.6538C46.4402 25.8728 47.125 27.5261 47.125 29.25ZM87.75 22.75H63.375C61.6511 22.75 59.9978 23.4348 58.7788 24.6538C57.5598 25.8728 56.875 27.5261 56.875 29.25V55.25C56.875 56.9739 57.5598 58.6272 58.7788 59.8462C59.9978 61.0652 61.6511 61.75 63.375 61.75H87.75V65C87.7393 68.4445 86.3662 71.7449 83.9305 74.1806C81.4949 76.6162 78.1945 77.9893 74.75 78C73.888 78 73.0614 78.3424 72.4519 78.9519C71.8424 79.5614 71.5 80.388 71.5 81.25C71.5 82.112 71.8424 82.9386 72.4519 83.5481C73.0614 84.1576 73.888 84.5 74.75 84.5C79.9217 84.5 84.8816 82.4455 88.5386 78.7886C92.1955 75.1316 94.25 70.1717 94.25 65V29.25C94.25 27.5261 93.5652 25.8728 92.3462 24.6538C91.1272 23.4348 89.4739 22.75 87.75 22.75Z" fill="#EAEBFF"/>
</svg>
