<svg width="36" height="36" viewBox="0 0 36 36" fill="none" xmlns="http://www.w3.org/2000/svg">
<path d="M18 13.3134C15.4195 13.3134 13.3137 15.4193 13.3137 17.9998C13.3137 20.5802 15.4195 22.6861 18 22.6861C20.5805 22.6861 22.6863 20.5802 22.6863 17.9998C22.6863 15.4193 20.5805 13.3134 18 13.3134ZM32.0555 17.9998C32.0555 16.0592 32.073 14.1361 31.964 12.199C31.8551 9.94899 31.3418 7.95212 29.6965 6.30681C28.0476 4.65798 26.0543 4.14821 23.8043 4.03923C21.8637 3.93024 19.9406 3.94782 18.0035 3.94782C16.0629 3.94782 14.1398 3.93024 12.2027 4.03923C9.95272 4.14821 7.95584 4.66149 6.31053 6.30681C4.6617 7.95564 4.15194 9.94899 4.04295 12.199C3.93397 14.1396 3.95155 16.0627 3.95155 17.9998C3.95155 19.9369 3.93397 21.8634 4.04295 23.8006C4.15194 26.0506 4.66522 28.0474 6.31053 29.6927C7.95936 31.3416 9.95272 31.8513 12.2027 31.9603C14.1433 32.0693 16.0664 32.0517 18.0035 32.0517C19.9441 32.0517 21.8672 32.0693 23.8043 31.9603C26.0543 31.8513 28.0512 31.3381 29.6965 29.6927C31.3453 28.0439 31.8551 26.0506 31.964 23.8006C32.0765 21.8634 32.0555 19.9404 32.0555 17.9998ZM18 25.2103C14.0097 25.2103 10.7894 21.99 10.7894 17.9998C10.7894 14.0095 14.0097 10.7892 18 10.7892C21.9902 10.7892 25.2105 14.0095 25.2105 17.9998C25.2105 21.99 21.9902 25.2103 18 25.2103ZM25.5058 12.1779C24.5742 12.1779 23.8219 11.4256 23.8219 10.4939C23.8219 9.56228 24.5742 8.80993 25.5058 8.80993C26.4375 8.80993 27.1898 9.56228 27.1898 10.4939C27.1901 10.7151 27.1467 10.9342 27.0622 11.1387C26.9777 11.3431 26.8536 11.5289 26.6972 11.6853C26.5408 11.8417 26.355 11.9658 26.1506 12.0503C25.9462 12.1348 25.7271 12.1782 25.5058 12.1779Z" fill="black"/>
</svg>
