<svg width="40" height="40" viewBox="0 0 40 40" fill="none" xmlns="http://www.w3.org/2000/svg">
<g clip-path="url(#clip0_123_89)">
<path d="M37.0364 0.00278916H2.95154C1.3406 -0.0153358 0.0195044 1.27513 -0.000183105 2.88607V37.1131C0.0188794 38.7248 1.33982 40.0165 2.95138 39.9997H37.0364C38.6514 40.0197 39.9775 38.7279 39.9998 37.1131V2.88341C39.9768 1.26935 38.6506 -0.0209608 37.0364 0.000132913" fill="#0A66C2"/>
<path d="M34.0817 34.0823H28.155V24.8006C28.155 22.5873 28.1155 19.7381 25.0725 19.7381C21.9856 19.7381 21.5133 22.1497 21.5133 24.6395V34.0817H15.5867V14.9948H21.2763V17.6033H21.3559C21.9253 16.6297 22.7481 15.8287 23.7367 15.2858C24.7253 14.7428 25.8426 14.4782 26.9697 14.52C32.9767 14.52 34.0842 18.4712 34.0842 23.6115L34.0817 34.0823Z" fill="white"/>
<path d="M8.89923 12.3859C6.9997 12.3862 5.45954 10.8466 5.45923 8.94702C5.45892 7.04749 6.99845 5.50733 8.89798 5.50702C10.7975 5.50655 12.3377 7.04624 12.338 8.94577C12.3381 9.85796 11.9759 10.7329 11.3311 11.378C10.6862 12.0232 9.81142 12.3857 8.89923 12.3859ZM11.8627 34.0825H5.9297V14.9948H11.8625V34.0823L11.8627 34.0825Z" fill="white"/>
</g>
<defs>
<clipPath id="clip0_123_89">
<rect width="40" height="40" fill="white"/>
</clipPath>
</defs>
</svg>
